<svg xmlns="http://www.w3.org/2000/svg" width="200" height="200" viewBox="0 0 200 200">
  <!-- Body -->
  <ellipse cx="100" cy="100" rx="80" ry="18" fill="#E8E8E8" stroke="#999" stroke-width="2"/>
  <!-- Nose -->
  <path d="M180 100 Q195 100 190 98 L180 100" fill="#CCC" stroke="#999" stroke-width="1"/>
  <!-- Windows -->
  <circle cx="80" cy="95" r="4" fill="#87CEEB" stroke="#666" stroke-width="1"/>
  <circle cx="95" cy="95" r="4" fill="#87CEEB" stroke="#666" stroke-width="1"/>
  <circle cx="110" cy="95" r="4" fill="#87CEEB" stroke="#666" stroke-width="1"/>
  <circle cx="125" cy="95" r="4" fill="#87CEEB" stroke="#666" stroke-width="1"/>
  <circle cx="140" cy="95" r="4" fill="#87CEEB" stroke="#666" stroke-width="1"/>
  <!-- Wings -->
  <polygon points="75,100 55,55 120,85 110,100" fill="#4A90D9" stroke="#2C5F8A" stroke-width="2"/>
  <polygon points="75,100 55,145 120,115 110,100" fill="#4A90D9" stroke="#2C5F8A" stroke-width="2"/>
  <!-- Tail -->
  <polygon points="25,100 10,60 40,90" fill="#FF4444" stroke="#CC0000" stroke-width="2"/>
  <polygon points="25,100 10,140 40,110" fill="#FF4444" stroke="#CC0000" stroke-width="2"/>
  <polygon points="20,100 15,82 30,95" fill="#FF6666" stroke="#CC0000" stroke-width="1"/>
  <!-- Cockpit -->
  <path d="M170 92 Q185 92 185 100 L170 100 Z" fill="#87CEEB" stroke="#666" stroke-width="1"/>
</svg>