<svg xmlns="http://www.w3.org/2000/svg" width="200" height="200" viewBox="0 0 200 200">
  <!-- Straps -->
  <path d="M55 65 Q45 65 40 80 L40 170" stroke="#C62828" stroke-width="8" fill="none" stroke-linecap="round"/>
  <path d="M145 65 Q155 65 160 80 L160 170" stroke="#C62828" stroke-width="8" fill="none" stroke-linecap="round"/>
  <!-- Main body -->
  <rect x="40" y="50" width="120" height="135" rx="15" fill="#E53935"/>
  <!-- Top handle -->
  <path d="M80 50 Q80 35 100 35 Q120 35 120 50" stroke="#C62828" stroke-width="6" fill="none" stroke-linecap="round"/>
  <!-- Front pocket -->
  <rect x="55" y="110" width="90" height="55" rx="10" fill="#EF5350"/>
  <rect x="60" y="115" width="80" height="45" rx="8" fill="#E53935" stroke="#C62828" stroke-width="1"/>
  <!-- Pocket zipper -->
  <line x1="70" y1="115" x2="130" y2="115" stroke="#FFD54F" stroke-width="2"/>
  <circle cx="100" cy="115" r="3" fill="#FFD54F"/>
  <!-- Main zipper -->
  <line x1="55" y1="65" x2="145" y2="65" stroke="#FFD54F" stroke-width="2"/>
  <circle cx="120" cy="65" r="3" fill="#FFD54F"/>
  <!-- Decorative badge -->
  <circle cx="100" cy="85" r="12" fill="#FFEB3B"/>
  <text x="100" y="90" text-anchor="middle" font-size="14" fill="#E53935" font-family="Arial" font-weight="bold">A</text>
</svg>