<svg xmlns="http://www.w3.org/2000/svg" viewBox="0 0 200 200" width="200" height="200">
  <!-- Background -->
  <rect width="200" height="200" rx="20" fill="#FFF5E6"/>
  <!-- Steam wisps -->
  <path d="M70 45 Q75 30 80 45" fill="none" stroke="#E0E0E0" stroke-width="3" stroke-linecap="round" opacity="0.6"/>
  <path d="M100 35 Q105 18 110 35" fill="none" stroke="#E0E0E0" stroke-width="3" stroke-linecap="round" opacity="0.6"/>
  <path d="M125 42 Q130 27 135 42" fill="none" stroke="#E0E0E0" stroke-width="3" stroke-linecap="round" opacity="0.5"/>
  <!-- Bamboo steamer base -->
  <ellipse cx="100" cy="155" rx="65" ry="18" fill="#C4A35A"/>
  <rect x="35" y="140" width="130" height="15" fill="#D4B36A" rx="3"/>
  <ellipse cx="100" cy="140" rx="65" ry="18" fill="#E0C580"/>
  <!-- Steamer slats -->
  <line x1="50" y1="140" x2="150" y2="140" stroke="#C4A35A" stroke-width="1" opacity="0.5"/>
  <!-- Baozi body -->
  <ellipse cx="100" cy="110" rx="50" ry="38" fill="#FFF8F0"/>
  <ellipse cx="100" cy="108" rx="48" ry="36" fill="#FFFDF8"/>
  <!-- Pleated top -->
  <path d="M85 78 Q90 68 100 65 Q110 68 115 78" fill="none" stroke="#E8DDD0" stroke-width="2.5" stroke-linecap="round"/>
  <path d="M88 80 Q94 72 100 70 Q106 72 112 80" fill="none" stroke="#EDE2D5" stroke-width="2" stroke-linecap="round"/>
  <!-- Pleat lines radiating from top -->
  <path d="M100 70 Q92 85 80 100" fill="none" stroke="#F0E5D8" stroke-width="1.5" stroke-linecap="round"/>
  <path d="M100 70 Q96 88 90 108" fill="none" stroke="#F0E5D8" stroke-width="1.5" stroke-linecap="round"/>
  <path d="M100 70 Q104 88 110 108" fill="none" stroke="#F0E5D8" stroke-width="1.5" stroke-linecap="round"/>
  <path d="M100 70 Q108 85 120 100" fill="none" stroke="#F0E5D8" stroke-width="1.5" stroke-linecap="round"/>
  <!-- Cute face -->
  <circle cx="85" cy="105" r="4" fill="#4A3728"/>
  <circle cx="115" cy="105" r="4" fill="#4A3728"/>
  <circle cx="86" cy="104" r="1.5" fill="white"/>
  <circle cx="116" cy="104" r="1.5" fill="white"/>
  <!-- Smile -->
  <path d="M90 118 Q100 128 110 118" fill="none" stroke="#4A3728" stroke-width="2.5" stroke-linecap="round"/>
  <!-- Blush -->
  <ellipse cx="78" cy="115" rx="7" ry="5" fill="#FFB5B5" opacity="0.5"/>
  <ellipse cx="122" cy="115" rx="7" ry="5" fill="#FFB5B5" opacity="0.5"/>
</svg>