<svg xmlns="http://www.w3.org/2000/svg" width="200" height="200" viewBox="0 0 200 200">
  <!-- Bowl -->
  <ellipse cx="100" cy="130" rx="78" ry="20" fill="#D84315"/>
  <path d="M22 130 Q28 188 100 188 Q172 188 178 130Z" fill="#E65100"/>
  <ellipse cx="100" cy="130" rx="78" ry="20" fill="#8D6E63"/>
  <!-- Broth -->
  <ellipse cx="100" cy="130" rx="72" ry="16" fill="#A1887F"/>
  <!-- Noodles -->
  <path d="M50 125 Q65 110 80 125 Q95 135 100 120 Q110 108 125 122 Q135 130 150 120" stroke="#FFE082" stroke-width="4" fill="none" stroke-linecap="round"/>
  <path d="M55 130 Q70 118 85 128 Q95 133 105 122 Q115 112 135 125" stroke="#FFD54F" stroke-width="3" fill="none" stroke-linecap="round"/>
  <!-- Meat slices -->
  <ellipse cx="80" cy="118" rx="18" ry="10" fill="#8D4E35" transform="rotate(-10 80 118)"/>
  <ellipse cx="80" cy="118" rx="15" ry="8" fill="#A1634D" transform="rotate(-10 80 118)"/>
  <ellipse cx="120" cy="115" rx="16" ry="9" fill="#8D4E35" transform="rotate(10 120 115)"/>
  <ellipse cx="120" cy="115" rx="13" ry="7" fill="#A1634D" transform="rotate(10 120 115)"/>
  <!-- Green onion -->
  <circle cx="100" cy="120" r="4" fill="#4CAF50"/>
  <circle cx="90" cy="125" r="3" fill="#66BB6A"/>
  <!-- Steam -->
  <path d="M70 80 Q65 60 70 42" stroke="#BDBDBD" stroke-width="3" fill="none" stroke-linecap="round" opacity="0.5"/>
  <path d="M100 75 Q95 55 100 37" stroke="#BDBDBD" stroke-width="3" fill="none" stroke-linecap="round" opacity="0.5"/>
  <path d="M130 80 Q125 60 130 42" stroke="#BDBDBD" stroke-width="3" fill="none" stroke-linecap="round" opacity="0.5"/>
</svg>