<svg xmlns="http://www.w3.org/2000/svg" width="200" height="200" viewBox="0 0 200 200">
  <!-- Body -->
  <circle cx="100" cy="115" r="55" fill="#FF2222" stroke="#CC0000" stroke-width="3"/>
  <!-- Head -->
  <circle cx="100" cy="55" r="22" fill="#333" stroke="#222" stroke-width="2"/>
  <!-- Center line -->
  <line x1="100" y1="60" x2="100" y2="170" stroke="#333" stroke-width="3"/>
  <!-- Spots -->
  <circle cx="78" cy="95" r="10" fill="#333"/>
  <circle cx="122" cy="95" r="10" fill="#333"/>
  <circle cx="75" cy="130" r="8" fill="#333"/>
  <circle cx="125" cy="130" r="8" fill="#333"/>
  <circle cx="85" cy="155" r="7" fill="#333"/>
  <circle cx="115" cy="155" r="7" fill="#333"/>
  <!-- Antennae -->
  <path d="M90 55 Q75 25 65 20" fill="none" stroke="#333" stroke-width="3" stroke-linecap="round"/>
  <path d="M110 55 Q125 25 135 20" fill="none" stroke="#333" stroke-width="3" stroke-linecap="round"/>
  <circle cx="65" cy="20" r="4" fill="#333"/>
  <circle cx="135" cy="20" r="4" fill="#333"/>
  <!-- Eyes -->
  <circle cx="92" cy="50" r="4" fill="white"/>
  <circle cx="108" cy="50" r="4" fill="white"/>
  <circle cx="92" cy="50" r="2" fill="#333"/>
  <circle cx="108" cy="50" r="2" fill="#333"/>
  <!-- Legs -->
  <line x1="55" y1="95" x2="30" y2="80" stroke="#333" stroke-width="3" stroke-linecap="round"/>
  <line x1="145" y1="95" x2="170" y2="80" stroke="#333" stroke-width="3" stroke-linecap="round"/>
  <line x1="48" y1="120" x2="25" y2="120" stroke="#333" stroke-width="3" stroke-linecap="round"/>
  <line x1="152" y1="120" x2="175" y2="120" stroke="#333" stroke-width="3" stroke-linecap="round"/>
  <line x1="55" y1="145" x2="32" y2="158" stroke="#333" stroke-width="3" stroke-linecap="round"/>
  <line x1="145" y1="145" x2="168" y2="158" stroke="#333" stroke-width="3" stroke-linecap="round"/>
</svg>