<svg xmlns="http://www.w3.org/2000/svg" width="200" height="200" viewBox="0 0 200 200">
  <!-- Left wrapper -->
  <path d="M25 85 Q35 75 50 80 L50 120 Q35 125 25 115Z" fill="#FF4081"/>
  <line x1="30" y1="85" x2="45" y2="82" stroke="#F50057" stroke-width="1.5"/>
  <line x1="30" y1="95" x2="48" y2="92" stroke="#F50057" stroke-width="1.5"/>
  <line x1="30" y1="105" x2="48" y2="108" stroke="#F50057" stroke-width="1.5"/>
  <line x1="30" y1="115" x2="45" y2="118" stroke="#F50057" stroke-width="1.5"/>
  <!-- Candy body -->
  <rect x="50" y="70" width="100" height="60" rx="15" fill="#FFEB3B"/>
  <!-- Candy stripes -->
  <rect x="70" y="70" width="12" height="60" fill="#FF9800" rx="2"/>
  <rect x="95" y="70" width="12" height="60" fill="#4CAF50" rx="2"/>
  <rect x="120" y="70" width="12" height="60" fill="#2196F3" rx="2"/>
  <!-- Right wrapper -->
  <path d="M150 80 Q165 75 175 85 L175 115 Q165 125 150 120Z" fill="#FF4081"/>
  <line x1="155" y1="82" x2="170" y2="85" stroke="#F50057" stroke-width="1.5"/>
  <line x1="152" y1="92" x2="170" y2="95" stroke="#F50057" stroke-width="1.5"/>
  <line x1="152" y1="108" x2="170" y2="105" stroke="#F50057" stroke-width="1.5"/>
  <line x1="155" y1="118" x2="170" y2="115" stroke="#F50057" stroke-width="1.5"/>
  <!-- Shine -->
  <ellipse cx="75" cy="85" rx="8" ry="5" fill="white" opacity="0.4"/>
</svg>