<svg xmlns="http://www.w3.org/2000/svg" width="200" height="200" viewBox="0 0 200 200">
  <circle cx="100" cy="115" r="55" fill="#FFB347" stroke="#E89830" stroke-width="3"/>
  <polygon points="55,75 45,25 80,60" fill="#FFB347" stroke="#E89830" stroke-width="3"/>
  <polygon points="145,75 155,25 120,60" fill="#FFB347" stroke="#E89830" stroke-width="3"/>
  <polygon points="55,75 50,35 75,60" fill="#FF8E8E"/>
  <polygon points="145,75 150,35 125,60" fill="#FF8E8E"/>
  <circle cx="80" cy="105" r="8" fill="#66BB6A"/>
  <circle cx="80" cy="105" r="4" fill="#333"/>
  <circle cx="120" cy="105" r="8" fill="#66BB6A"/>
  <circle cx="120" cy="105" r="4" fill="#333"/>
  <ellipse cx="100" cy="125" rx="6" ry="5" fill="#FF8E8E"/>
  <line x1="40" y1="115" x2="70" y2="118" stroke="#E89830" stroke-width="2"/>
  <line x1="40" y1="125" x2="70" y2="124" stroke="#E89830" stroke-width="2"/>
  <line x1="130" y1="118" x2="160" y2="115" stroke="#E89830" stroke-width="2"/>
  <line x1="130" y1="124" x2="160" y2="125" stroke="#E89830" stroke-width="2"/>
</svg>
