<svg xmlns="http://www.w3.org/2000/svg" viewBox="0 0 200 200" width="200" height="200">
  <!-- Background -->
  <rect width="200" height="200" rx="20" fill="#FFF0F5"/>
  <!-- Wrapper (pulled back) -->
  <path d="M30 70 L25 55 L45 50 L55 60 L55 70 Z" fill="#FFD700"/>
  <path d="M170 70 L175 55 L155 50 L145 60 L145 70 Z" fill="#FFD700"/>
  <rect x="25" y="68" width="150" height="8" fill="#FFD700" opacity="0.6"/>
  <!-- Gold foil inner -->
  <path d="M30 70 L45 50 L55 60" fill="#FFC107" opacity="0.7"/>
  <path d="M170 70 L155 50 L145 60" fill="#FFC107" opacity="0.7"/>
  <!-- Chocolate bar body -->
  <rect x="40" y="70" width="120" height="80" rx="5" fill="#6D4C2E"/>
  <rect x="40" y="70" width="120" height="80" rx="5" fill="url(#chocoGrad)" opacity="0.3"/>
  <!-- Chocolate segments -->
  <!-- Row 1 -->
  <rect x="46" y="76" width="25" height="30" rx="3" fill="#7D5A3C"/>
  <rect x="77" y="76" width="25" height="30" rx="3" fill="#7D5A3C"/>
  <rect x="108" y="76" width="25" height="30" rx="3" fill="#7D5A3C"/>
  <rect x="139" y="76" width="15" height="30" rx="3" fill="#7D5A3C"/>
  <!-- Row 2 -->
  <rect x="46" y="112" width="25" height="30" rx="3" fill="#7D5A3C"/>
  <rect x="77" y="112" width="25" height="30" rx="3" fill="#7D5A3C"/>
  <rect x="108" y="112" width="25" height="30" rx="3" fill="#7D5A3C"/>
  <rect x="139" y="112" width="15" height="30" rx="3" fill="#7D5A3C"/>
  <!-- Grid lines -->
  <line x1="74" y1="70" x2="74" y2="150" stroke="#5C3A1E" stroke-width="1.5"/>
  <line x1="105" y1="70" x2="105" y2="150" stroke="#5C3A1E" stroke-width="1.5"/>
  <line x1="136" y1="70" x2="136" y2="150" stroke="#5C3A1E" stroke-width="1.5"/>
  <line x1="40" y1="109" x2="160" y2="109" stroke="#5C3A1E" stroke-width="1.5"/>
  <!-- Wrapper label area -->
  <rect x="30" y="155" width="140" height="25" rx="4" fill="#8B1A8B"/>
  <rect x="36" y="160" width="128" height="15" rx="3" fill="#A020A0"/>
  <text x="100" y="173" text-anchor="middle" fill="white" font-size="11" font-weight="bold" font-family="Arial">CHOCOLATE</text>
  <!-- Shine -->
  <rect x="48" y="78" width="8" height="4" rx="2" fill="white" opacity="0.25"/>
  <rect x="79" y="78" width="8" height="4" rx="2" fill="white" opacity="0.2"/>
  <!-- Cute sparkles -->
  <path d="M25 35 L27 42 L34 44 L27 46 L25 53 L23 46 L16 44 L23 42 Z" fill="#FFD700" opacity="0.6"/>
  <path d="M175 30 L177 36 L183 38 L177 40 L175 46 L173 40 L167 38 L173 36 Z" fill="#FFD700" opacity="0.5"/>
  <defs>
    <linearGradient id="chocoGrad" x1="0" y1="0" x2="0" y2="1">
      <stop offset="0%" stop-color="white" stop-opacity="0.2"/>
      <stop offset="100%" stop-color="black" stop-opacity="0.1"/>
    </linearGradient>
  </defs>
</svg>