<svg xmlns="http://www.w3.org/2000/svg" viewBox="0 0 200 200" width="200" height="200">
  <!-- Background -->
  <rect width="200" height="200" rx="20" fill="#FFF0F0"/>
  <!-- Can body -->
  <rect x="55" y="40" width="90" height="130" rx="12" fill="#E02020"/>
  <!-- Can top rim -->
  <ellipse cx="100" cy="42" rx="44" ry="8" fill="#D01818"/>
  <ellipse cx="100" cy="40" rx="44" ry="8" fill="#C0C0C0"/>
  <ellipse cx="100" cy="39" rx="40" ry="6" fill="#D8D8D8"/>
  <!-- Pull tab -->
  <ellipse cx="100" cy="38" rx="12" ry="4" fill="#B0B0B0"/>
  <circle cx="100" cy="36" r="2" fill="#A0A0A0"/>
  <!-- Can bottom -->
  <ellipse cx="100" cy="170" rx="44" ry="8" fill="#C01818"/>
  <!-- White wave design -->
  <path d="M55 100 Q75 85 100 100 Q125 115 145 100" fill="none" stroke="white" stroke-width="4" opacity="0.9"/>
  <path d="M55 110 Q75 95 100 110 Q125 125 145 110" fill="none" stroke="white" stroke-width="3" opacity="0.6"/>
  <!-- Label text area -->
  <rect x="65" y="68" width="70" height="24" rx="4" fill="white" opacity="0.9"/>
  <text x="100" y="85" text-anchor="middle" fill="#E02020" font-size="15" font-weight="bold" font-family="Arial">COLA</text>
  <!-- Bubbles -->
  <circle cx="75" cy="55" r="4" fill="white" opacity="0.3"/>
  <circle cx="120" cy="50" r="3" fill="white" opacity="0.25"/>
  <circle cx="90" cy="48" r="2.5" fill="white" opacity="0.2"/>
  <!-- Cute face -->
  <circle cx="82" cy="130" r="4" fill="white"/>
  <circle cx="118" cy="130" r="4" fill="white"/>
  <circle cx="83" cy="129" r="1.5" fill="#E02020"/>
  <circle cx="119" cy="129" r="1.5" fill="#E02020"/>
  <path d="M88 143 Q100 153 112 143" fill="none" stroke="white" stroke-width="2.5" stroke-linecap="round"/>
  <!-- Blush -->
  <ellipse cx="74" cy="138" rx="6" ry="4" fill="#FF8080" opacity="0.4"/>
  <ellipse cx="126" cy="138" rx="6" ry="4" fill="#FF8080" opacity="0.4"/>
  <!-- Fizz bubbles floating up -->
  <circle cx="68" cy="25" r="3" fill="#FFB0B0" opacity="0.4"/>
  <circle cx="130" cy="20" r="2.5" fill="#FFB0B0" opacity="0.35"/>
  <circle cx="85" cy="18" r="2" fill="#FFB0B0" opacity="0.3"/>
  <circle cx="110" cy="28" r="2" fill="#FFB0B0" opacity="0.3"/>
</svg>