<svg xmlns="http://www.w3.org/2000/svg" width="200" height="200" viewBox="0 0 200 200">
  <!-- Bowl -->
  <ellipse cx="100" cy="135" rx="75" ry="18" fill="#1565C0"/>
  <path d="M25 135 Q32 185 100 185 Q168 185 175 135Z" fill="#1E88E5"/>
  <ellipse cx="100" cy="135" rx="75" ry="18" fill="#42A5F5"/>
  <!-- Blue pattern on bowl -->
  <path d="M40 155 Q70 165 100 155 Q130 145 160 155" stroke="#1565C0" stroke-width="2" fill="none"/>
  <!-- Rice dome -->
  <path d="M30 133 Q35 95 100 90 Q165 95 170 133" fill="#FFFDE7"/>
  <ellipse cx="100" cy="133" rx="70" ry="14" fill="#FFF9C4"/>
  <!-- Rice grains -->
  <ellipse cx="80" cy="110" rx="5" ry="3" fill="#FFFFFF" transform="rotate(-20 80 110)"/>
  <ellipse cx="100" cy="105" rx="5" ry="3" fill="#FFFFFF" transform="rotate(10 100 105)"/>
  <ellipse cx="120" cy="108" rx="5" ry="3" fill="#FFFFFF" transform="rotate(15 120 108)"/>
  <ellipse cx="90" cy="118" rx="5" ry="3" fill="#FFFFFF" transform="rotate(-10 90 118)"/>
  <ellipse cx="110" cy="116" rx="5" ry="3" fill="#FFFFFF" transform="rotate(5 110 116)"/>
  <!-- Steam -->
  <path d="M75 70 Q70 50 75 35" stroke="#BDBDBD" stroke-width="3" fill="none" stroke-linecap="round" opacity="0.5"/>
  <path d="M100 65 Q95 45 100 30" stroke="#BDBDBD" stroke-width="3" fill="none" stroke-linecap="round" opacity="0.5"/>
  <path d="M125 70 Q120 50 125 35" stroke="#BDBDBD" stroke-width="3" fill="none" stroke-linecap="round" opacity="0.5"/>
</svg>