<svg xmlns="http://www.w3.org/2000/svg" width="200" height="200" viewBox="0 0 200 200">
  <!-- Body -->
  <ellipse cx="105" cy="110" rx="60" ry="40" fill="white" stroke="#333" stroke-width="3"/>
  <!-- Spots -->
  <ellipse cx="85" cy="100" rx="15" ry="12" fill="#333"/>
  <ellipse cx="125" cy="115" rx="12" ry="10" fill="#333"/>
  <ellipse cx="105" cy="130" rx="10" ry="8" fill="#333"/>
  <!-- Head -->
  <circle cx="55" cy="60" r="30" fill="white" stroke="#333" stroke-width="3"/>
  <!-- Horns -->
  <path d="M35 35 L25 15 L40 30" fill="#FFD700" stroke="#CC9900" stroke-width="2"/>
  <path d="M75 35 L85 15 L70 30" fill="#FFD700" stroke="#CC9900" stroke-width="2"/>
  <!-- Ears -->
  <ellipse cx="25" cy="50" rx="12" ry="8" fill="white" stroke="#333" stroke-width="2"/>
  <ellipse cx="85" cy="50" rx="12" ry="8" fill="white" stroke="#333" stroke-width="2"/>
  <!-- Eyes -->
  <circle cx="45" cy="55" r="5" fill="#333"/>
  <circle cx="65" cy="55" r="5" fill="#333"/>
  <circle cx="46" cy="53" r="2" fill="white"/>
  <circle cx="66" cy="53" r="2" fill="white"/>
  <!-- Muzzle -->
  <ellipse cx="55" cy="75" rx="18" ry="12" fill="#FFB6C1" stroke="#E8899A" stroke-width="2"/>
  <circle cx="48" cy="75" r="3" fill="#E8899A"/>
  <circle cx="62" cy="75" r="3" fill="#E8899A"/>
  <!-- Legs -->
  <rect x="65" y="145" width="12" height="35" rx="3" fill="white" stroke="#333" stroke-width="2"/>
  <rect x="90" y="145" width="12" height="35" rx="3" fill="white" stroke="#333" stroke-width="2"/>
  <rect x="120" y="145" width="12" height="35" rx="3" fill="white" stroke="#333" stroke-width="2"/>
  <rect x="145" y="145" width="12" height="35" rx="3" fill="white" stroke="#333" stroke-width="2"/>
  <!-- Udder -->
  <ellipse cx="115" cy="148" rx="12" ry="8" fill="#FFB6C1"/>
</svg>