<svg xmlns="http://www.w3.org/2000/svg" width="200" height="200" viewBox="0 0 200 200">
  <!-- Body -->
  <ellipse cx="110" cy="110" rx="55" ry="42" fill="#8899BB" stroke="#667799" stroke-width="3"/>
  <!-- Head -->
  <circle cx="60" cy="80" r="40" fill="#8899BB" stroke="#667799" stroke-width="3"/>
  <!-- Ear -->
  <ellipse cx="25" cy="75" rx="22" ry="30" fill="#AA88BB" stroke="#667799" stroke-width="3"/>
  <!-- Trunk -->
  <path d="M55 110 C50 130 45 145 35 155 C30 160 30 165 40 165 C48 165 55 158 58 145 C62 130 65 120 68 112" fill="#8899BB" stroke="#667799" stroke-width="3"/>
  <!-- Eye -->
  <circle cx="50" cy="72" r="6" fill="white"/>
  <circle cx="50" cy="72" r="3" fill="#333"/>
  <circle cx="51" cy="71" r="1.5" fill="white"/>
  <!-- Tusk -->
  <path d="M68 105 Q72 120 65 125" fill="none" stroke="white" stroke-width="4" stroke-linecap="round"/>
  <!-- Legs -->
  <rect x="75" y="145" width="16" height="32" rx="6" fill="#8899BB" stroke="#667799" stroke-width="2"/>
  <rect x="98" y="145" width="16" height="32" rx="6" fill="#8899BB" stroke="#667799" stroke-width="2"/>
  <rect x="122" y="145" width="16" height="32" rx="6" fill="#8899BB" stroke="#667799" stroke-width="2"/>
  <rect x="145" y="145" width="16" height="30" rx="6" fill="#8899BB" stroke="#667799" stroke-width="2"/>
  <!-- Tail -->
  <path d="M165 105 Q178 100 175 115" fill="none" stroke="#667799" stroke-width="3" stroke-linecap="round"/>
</svg>