<svg xmlns="http://www.w3.org/2000/svg" width="200" height="200" viewBox="0 0 200 200">
  <path d="M100 15 Q130 60 145 95 Q160 130 145 155 Q130 180 100 185 Q70 180 55 155 Q40 130 55 95 Q70 60 100 15Z" fill="#FF6B35" stroke="#CC4400" stroke-width="2"/>
  <path d="M100 50 Q120 80 130 105 Q140 130 125 150 Q115 165 100 168 Q85 165 75 150 Q60 130 70 105 Q80 80 100 50Z" fill="#FFD93D"/>
  <path d="M100 90 Q110 110 115 125 Q120 140 110 150 Q105 155 100 156 Q95 155 90 150 Q80 140 85 125 Q90 110 100 90Z" fill="#FF8C42"/>
</svg>
