<svg xmlns="http://www.w3.org/2000/svg" width="200" height="200" viewBox="0 0 200 200">
  <!-- Elderly woman -->
  <!-- White/gray hair (curly, bun style) -->
  <circle cx="100" cy="30" r="18" fill="#E0E0E0"/>
  <path d="M62 55 Q58 20 100 14 Q142 20 138 55 L138 70 Q138 75 133 70 L133 55 Q133 28 100 22 Q67 28 67 55 L67 70 Q62 75 62 70 Z" fill="#E0E0E0"/>
  <!-- Head -->
  <circle cx="100" cy="58" r="32" fill="#FFCC80"/>
  <!-- Rosy cheeks -->
  <circle cx="78" cy="65" r="8" fill="#FFAB91" opacity="0.5"/>
  <circle cx="122" cy="65" r="8" fill="#FFAB91" opacity="0.5"/>
  <!-- Eyes -->
  <circle cx="88" cy="55" r="4" fill="#333"/>
  <circle cx="112" cy="55" r="4" fill="#333"/>
  <!-- Small glasses -->
  <ellipse cx="88" cy="55" rx="10" ry="8" fill="none" stroke="#8D6E63" stroke-width="2"/>
  <ellipse cx="112" cy="55" rx="10" ry="8" fill="none" stroke="#8D6E63" stroke-width="2"/>
  <line x1="98" y1="55" x2="102" y2="55" stroke="#8D6E63" stroke-width="2"/>
  <!-- Kind smile -->
  <path d="M88 70 Q100 80 112 70" fill="none" stroke="#333" stroke-width="2.5" stroke-linecap="round"/>
  <!-- Dress/Top -->
  <path d="M75 92 L68 168 L132 168 L125 92 Z" fill="#AB47BC"/>
  <rect x="75" y="90" width="50" height="25" rx="10" fill="#AB47BC"/>
  <!-- Pearl necklace -->
  <circle cx="85" cy="93" r="3" fill="#FFF9C4"/>
  <circle cx="93" cy="91" r="3" fill="#FFF9C4"/>
  <circle cx="100" cy="90" r="3" fill="#FFF9C4"/>
  <circle cx="107" cy="91" r="3" fill="#FFF9C4"/>
  <circle cx="115" cy="93" r="3" fill="#FFF9C4"/>
  <!-- Arms -->
  <rect x="50" y="96" width="18" height="38" rx="8" fill="#FFCC80"/>
  <rect x="132" y="96" width="18" height="38" rx="8" fill="#FFCC80"/>
  <!-- Legs -->
  <rect x="82" y="163" width="14" height="18" rx="5" fill="#FFCC80"/>
  <rect x="104" y="163" width="14" height="18" rx="5" fill="#FFCC80"/>
  <!-- Shoes -->
  <ellipse cx="89" cy="183" rx="12" ry="6" fill="#7B1FA2"/>
  <ellipse cx="111" cy="183" rx="12" ry="6" fill="#7B1FA2"/>
</svg>