<svg xmlns="http://www.w3.org/2000/svg" width="200" height="200" viewBox="0 0 200 200">
  <!-- Body -->
  <ellipse cx="110" cy="110" rx="55" ry="35" fill="#8B6914" stroke="#6B4F10" stroke-width="3"/>
  <!-- Neck -->
  <path d="M70 95 L50 45 L75 40 L85 85 Z" fill="#8B6914" stroke="#6B4F10" stroke-width="3"/>
  <!-- Head -->
  <ellipse cx="45" cy="40" rx="30" ry="20" fill="#8B6914" stroke="#6B4F10" stroke-width="3"/>
  <!-- Mane -->
  <path d="M55 25 Q65 15 70 30 Q75 20 78 35 Q82 22 85 40" fill="#4A3510" stroke="none"/>
  <!-- Eye -->
  <circle cx="35" cy="36" r="4" fill="#333"/>
  <circle cx="36" cy="35" r="1.5" fill="white"/>
  <!-- Nostril -->
  <circle cx="22" cy="42" r="3" fill="#6B4F10"/>
  <!-- Ear -->
  <polygon points="42,22 48,10 54,24" fill="#8B6914" stroke="#6B4F10" stroke-width="2"/>
  <!-- Legs -->
  <rect x="75" y="140" width="10" height="40" rx="3" fill="#8B6914" stroke="#6B4F10" stroke-width="2"/>
  <rect x="95" y="140" width="10" height="40" rx="3" fill="#8B6914" stroke="#6B4F10" stroke-width="2"/>
  <rect x="125" y="140" width="10" height="40" rx="3" fill="#8B6914" stroke="#6B4F10" stroke-width="2"/>
  <rect x="145" y="140" width="10" height="40" rx="3" fill="#8B6914" stroke="#6B4F10" stroke-width="2"/>
  <!-- Hooves -->
  <rect x="73" y="176" width="14" height="8" rx="2" fill="#333"/>
  <rect x="93" y="176" width="14" height="8" rx="2" fill="#333"/>
  <rect x="123" y="176" width="14" height="8" rx="2" fill="#333"/>
  <rect x="143" y="176" width="14" height="8" rx="2" fill="#333"/>
  <!-- Tail -->
  <path d="M165 105 Q185 95 180 120 Q175 140 165 130" fill="#4A3510" stroke="#4A3510" stroke-width="2"/>
</svg>