<svg xmlns="http://www.w3.org/2000/svg" width="200" height="200" viewBox="0 0 200 200">
  <!-- Building body -->
  <rect x="25" y="55" width="150" height="130" rx="5" fill="#EEEEEE"/>
  <!-- Roof -->
  <rect x="20" y="48" width="160" height="15" rx="3" fill="#BDBDBD"/>
  <!-- Red cross sign -->
  <rect x="75" y="20" width="50" height="35" rx="5" fill="white" stroke="#E0E0E0" stroke-width="2"/>
  <rect x="93" y="25" width="14" height="25" rx="2" fill="#E53935"/>
  <rect x="82" y="32" width="36" height="12" rx="2" fill="#E53935"/>
  <!-- Door -->
  <rect x="75" y="130" width="50" height="55" rx="3" fill="#42A5F5"/>
  <line x1="100" y1="130" x2="100" y2="185" stroke="#1E88E5" stroke-width="2"/>
  <!-- Windows row 1 -->
  <rect x="35" y="70" width="25" height="22" rx="3" fill="#BBDEFB"/>
  <line x1="47" y1="70" x2="47" y2="92" stroke="#90CAF9" stroke-width="1.5"/>
  <line x1="35" y1="81" x2="60" y2="81" stroke="#90CAF9" stroke-width="1.5"/>
  <rect x="140" y="70" width="25" height="22" rx="3" fill="#BBDEFB"/>
  <line x1="152" y1="70" x2="152" y2="92" stroke="#90CAF9" stroke-width="1.5"/>
  <line x1="140" y1="81" x2="165" y2="81" stroke="#90CAF9" stroke-width="1.5"/>
  <!-- Windows row 2 -->
  <rect x="35" y="102" width="25" height="22" rx="3" fill="#BBDEFB"/>
  <line x1="47" y1="102" x2="47" y2="124" stroke="#90CAF9" stroke-width="1.5"/>
  <line x1="35" y1="113" x2="60" y2="113" stroke="#90CAF9" stroke-width="1.5"/>
  <rect x="140" y="102" width="25" height="22" rx="3" fill="#BBDEFB"/>
  <line x1="152" y1="102" x2="152" y2="124" stroke="#90CAF9" stroke-width="1.5"/>
  <line x1="140" y1="113" x2="165" y2="113" stroke="#90CAF9" stroke-width="1.5"/>
  <!-- Ambulance symbol on door -->
  <rect x="94" y="145" width="12" height="4" rx="1" fill="white"/>
  <rect x="98" y="141" width="4" height="12" rx="1" fill="white"/>
</svg>