<svg xmlns="http://www.w3.org/2000/svg" viewBox="0 0 200 200" width="200" height="200">
  <!-- Background -->
  <rect width="200" height="200" rx="20" fill="#FFF8E1"/>
  <!-- Key shadow -->
  <ellipse cx="105" cy="170" rx="50" ry="8" fill="#D7CCC8" opacity="0.3"/>
  <!-- Key ring (bow) -->
  <circle cx="65" cy="75" r="32" fill="#FFD54F" stroke="#FFC107" stroke-width="4"/>
  <circle cx="65" cy="75" r="20" fill="#FFF8E1" stroke="#FFD54F" stroke-width="3"/>
  <!-- Key highlight on ring -->
  <path d="M50 58 Q55 50 65 48" fill="none" stroke="#FFE082" stroke-width="3" stroke-linecap="round"/>
  <!-- Key shaft -->
  <rect x="90" y="68" width="75" height="14" rx="4" fill="#FFD54F" stroke="#FFC107" stroke-width="2"/>
  <!-- Key shaft highlight -->
  <rect x="90" y="70" width="75" height="5" rx="2" fill="#FFE082" opacity="0.5"/>
  <!-- Key teeth (bits) -->
  <rect x="145" y="82" width="12" height="16" rx="2" fill="#FFD54F" stroke="#FFC107" stroke-width="2"/>
  <rect x="155" y="82" width="10" height="12" rx="2" fill="#FFD54F" stroke="#FFC107" stroke-width="2"/>
  <rect x="135" y="82" width="10" height="20" rx="2" fill="#FFD54F" stroke="#FFC107" stroke-width="2"/>
  <!-- Sparkles -->
  <path d="M35 40 L37 46 L43 48 L37 50 L35 56 L33 50 L27 48 L33 46 Z" fill="#FFD700" opacity="0.6"/>
  <path d="M130 45 L131 49 L135 50 L131 51 L130 55 L129 51 L125 50 L129 49 Z" fill="#FFD700" opacity="0.5"/>
  <path d="M160 110 L162 116 L168 118 L162 120 L160 126 L158 120 L152 118 L158 116 Z" fill="#FFD700" opacity="0.5"/>
  <!-- Cute face on ring -->
  <circle cx="57" cy="72" r="3.5" fill="#8D6E63"/>
  <circle cx="73" cy="72" r="3.5" fill="#8D6E63"/>
  <circle cx="58" cy="71" r="1.3" fill="white"/>
  <circle cx="74" cy="71" r="1.3" fill="white"/>
  <path d="M60 82 Q65 88 70 82" fill="none" stroke="#8D6E63" stroke-width="2" stroke-linecap="round"/>
  <!-- Blush -->
  <ellipse cx="52" cy="79" rx="5" ry="3" fill="#FFAB91" opacity="0.5"/>
  <ellipse cx="78" cy="79" rx="5" ry="3" fill="#FFAB91" opacity="0.5"/>
</svg>