<svg xmlns="http://www.w3.org/2000/svg" width="200" height="200" viewBox="0 0 200 200">
  <!-- Ground -->
  <line x1="10" y1="180" x2="190" y2="180" stroke="#BDBDBD" stroke-width="2"/>
  <!-- Leg -->
  <path d="M60 60 L75 120" stroke="#FFCC80" stroke-width="16" fill="none" stroke-linecap="round"/>
  <path d="M75 120 L120 145" stroke="#FFCC80" stroke-width="14" fill="none" stroke-linecap="round"/>
  <!-- Shoe -->
  <path d="M115 138 Q130 128 145 135 Q150 140 148 148 Q140 155 120 150 Q112 148 115 138Z" fill="#42A5F5"/>
  <path d="M120 142 Q130 136 140 140" stroke="white" stroke-width="1.5" fill="none"/>
  <!-- Pants/shorts on leg -->
  <rect x="48" y="55" width="24" height="30" rx="5" fill="#1E88E5"/>
  <!-- Soccer ball -->
  <circle cx="158" cy="145" r="22" fill="white" stroke="#424242" stroke-width="2"/>
  <path d="M150 132 L158 128 L166 132 L164 142 L152 142Z" fill="#424242"/>
  <path d="M142 148 L148 142 L148 152Z" fill="#424242"/>
  <path d="M168 142 L174 148 L168 152Z" fill="#424242"/>
  <path d="M150 160 L158 164 L166 160" fill="#424242"/>
  <!-- Motion lines -->
  <line x1="95" y1="155" x2="80" y2="160" stroke="#FFD54F" stroke-width="2" opacity="0.7"/>
  <line x1="95" y1="148" x2="78" y2="148" stroke="#FFD54F" stroke-width="2" opacity="0.7"/>
  <line x1="95" y1="140" x2="80" y2="135" stroke="#FFD54F" stroke-width="2" opacity="0.7"/>
</svg>