<svg xmlns="http://www.w3.org/2000/svg" width="200" height="200" viewBox="0 0 200 200">
  <!-- Big red heart with sparkles -->
  <!-- Heart -->
  <path d="M100 170
    C40 130 10 85 10 60
    C10 30 35 15 60 15
    C78 15 92 28 100 42
    C108 28 122 15 140 15
    C165 15 190 30 190 60
    C190 85 160 130 100 170Z"
    fill="#E91E63" stroke="#C2185B" stroke-width="3"/>
  <!-- Heart shine -->
  <path d="M60 40 Q50 50 55 65" fill="none" stroke="white" stroke-width="4" stroke-linecap="round" opacity="0.5"/>
  <!-- Sparkles -->
  <text x="5" y="35" font-size="24" fill="#FFD700">&#9733;</text>
  <text x="170" y="30" font-size="20" fill="#FFD700">&#9733;</text>
  <text x="25" y="160" font-size="18" fill="#FFD700">&#9733;</text>
  <text x="160" y="155" font-size="22" fill="#FFD700">&#9733;</text>
  <text x="85" y="20" font-size="14" fill="#FFD700">&#9733;</text>
  <!-- Small hearts -->
  <path d="M30 100 C25 92 15 92 15 100 C15 108 30 115 30 115 C30 115 45 108 45 100 C45 92 35 92 30 100Z" fill="#F48FB1" opacity="0.7"/>
  <path d="M170 95 C166 89 158 89 158 95 C158 101 170 107 170 107 C170 107 182 101 182 95 C182 89 174 89 170 95Z" fill="#F48FB1" opacity="0.7"/>
</svg>