<svg xmlns="http://www.w3.org/2000/svg" width="200" height="200" viewBox="0 0 200 200">
  <!-- Sky -->
  <rect x="0" y="0" width="200" height="140" fill="#B3E5FC"/>
  <!-- Sun -->
  <circle cx="160" cy="35" r="20" fill="#FFD54F"/>
  <!-- Ground -->
  <rect x="0" y="130" width="200" height="70" fill="#81C784"/>
  <!-- Path -->
  <path d="M80 200 Q90 160 100 140 Q110 160 120 200" fill="#BCAAA4"/>
  <!-- Left tree -->
  <rect x="28" y="85" width="12" height="55" fill="#8D6E63"/>
  <circle cx="34" cy="65" r="28" fill="#4CAF50"/>
  <circle cx="20" cy="80" r="20" fill="#388E3C"/>
  <circle cx="48" cy="80" r="20" fill="#388E3C"/>
  <!-- Right tree -->
  <rect x="148" y="85" width="12" height="55" fill="#8D6E63"/>
  <circle cx="154" cy="65" r="28" fill="#66BB6A"/>
  <circle cx="140" cy="80" r="20" fill="#43A047"/>
  <circle cx="168" cy="80" r="20" fill="#43A047"/>
  <!-- Bench -->
  <rect x="80" y="145" width="50" height="5" rx="2" fill="#795548"/>
  <rect x="80" y="155" width="50" height="5" rx="2" fill="#795548"/>
  <rect x="82" y="150" width="4" height="18" fill="#5D4037"/>
  <rect x="124" y="150" width="4" height="18" fill="#5D4037"/>
  <!-- Flowers -->
  <circle cx="60" cy="148" r="4" fill="#FF4081"/>
  <circle cx="70" cy="152" r="4" fill="#FFEB3B"/>
  <circle cx="145" cy="148" r="4" fill="#FF4081"/>
  <circle cx="155" cy="145" r="4" fill="#7C4DFF"/>
</svg>