<svg xmlns="http://www.w3.org/2000/svg" width="200" height="200" viewBox="0 0 200 200">
  <!-- Phone body -->
  <rect x="55" y="15" width="90" height="170" rx="15" fill="#333" stroke="#222" stroke-width="3"/>
  <!-- Screen -->
  <rect x="63" y="35" width="74" height="120" rx="3" fill="#87CEEB"/>
  <!-- Home button area -->
  <circle cx="100" cy="167" r="8" fill="none" stroke="#555" stroke-width="2"/>
  <!-- Camera -->
  <circle cx="100" cy="25" r="4" fill="#555"/>
  <!-- App icons on screen -->
  <rect x="72" y="50" width="18" height="18" rx="4" fill="#FF6B6B"/>
  <rect x="96" y="50" width="18" height="18" rx="4" fill="#44BB44"/>
  <rect x="120" y="50" width="12" height="18" rx="4" fill="#4A90D9"/>
  <rect x="72" y="78" width="18" height="18" rx="4" fill="#FFB347"/>
  <rect x="96" y="78" width="18" height="18" rx="4" fill="#9B59B6"/>
  <rect x="120" y="78" width="12" height="18" rx="4" fill="#FFD700"/>
  <rect x="72" y="106" width="18" height="18" rx="4" fill="#1ABC9C"/>
  <rect x="96" y="106" width="18" height="18" rx="4" fill="#E74C3C"/>
  <rect x="120" y="106" width="12" height="18" rx="4" fill="#FF69B4"/>
  <!-- Time -->
  <text x="100" y="45" text-anchor="middle" font-family="Arial" font-size="8" fill="white">12:00</text>
</svg>