<svg xmlns="http://www.w3.org/2000/svg" width="200" height="200" viewBox="0 0 200 200">
  <!-- Face -->
  <circle cx="100" cy="105" r="70" fill="#FFB6C1" stroke="#E8899A" stroke-width="3"/>
  <!-- Ears -->
  <ellipse cx="45" cy="55" rx="25" ry="30" fill="#FF9AAF" stroke="#E8899A" stroke-width="3" transform="rotate(-20 45 55)"/>
  <ellipse cx="155" cy="55" rx="25" ry="30" fill="#FF9AAF" stroke="#E8899A" stroke-width="3" transform="rotate(20 155 55)"/>
  <!-- Inner ear -->
  <ellipse cx="45" cy="55" rx="14" ry="18" fill="#FFB6C1" transform="rotate(-20 45 55)"/>
  <ellipse cx="155" cy="55" rx="14" ry="18" fill="#FFB6C1" transform="rotate(20 155 55)"/>
  <!-- Eyes -->
  <circle cx="75" cy="90" r="10" fill="white"/>
  <circle cx="125" cy="90" r="10" fill="white"/>
  <circle cx="75" cy="90" r="6" fill="#333"/>
  <circle cx="125" cy="90" r="6" fill="#333"/>
  <circle cx="77" cy="88" r="2" fill="white"/>
  <circle cx="127" cy="88" r="2" fill="white"/>
  <!-- Snout -->
  <ellipse cx="100" cy="125" rx="28" ry="20" fill="#FF9AAF" stroke="#E8899A" stroke-width="2"/>
  <circle cx="90" cy="125" r="5" fill="#E8899A"/>
  <circle cx="110" cy="125" r="5" fill="#E8899A"/>
  <!-- Mouth -->
  <path d="M85 145 Q100 155 115 145" fill="none" stroke="#E8899A" stroke-width="2"/>
</svg>