<svg xmlns="http://www.w3.org/2000/svg" width="200" height="200" viewBox="0 0 200 200">
  <!-- Ears -->
  <ellipse cx="75" cy="45" rx="16" ry="45" fill="white" stroke="#CCC" stroke-width="3"/>
  <ellipse cx="125" cy="45" rx="16" ry="45" fill="white" stroke="#CCC" stroke-width="3"/>
  <ellipse cx="75" cy="45" rx="9" ry="35" fill="#FFB6C1"/>
  <ellipse cx="125" cy="45" rx="9" ry="35" fill="#FFB6C1"/>
  <!-- Face -->
  <circle cx="100" cy="115" r="50" fill="white" stroke="#CCC" stroke-width="3"/>
  <!-- Eyes -->
  <circle cx="80" cy="105" r="8" fill="#FF6B8A"/>
  <circle cx="120" cy="105" r="8" fill="#FF6B8A"/>
  <circle cx="82" cy="103" r="3" fill="white"/>
  <circle cx="122" cy="103" r="3" fill="white"/>
  <!-- Nose -->
  <ellipse cx="100" cy="125" rx="6" ry="5" fill="#FFB6C1"/>
  <!-- Mouth -->
  <path d="M94 130 Q100 140 106 130" fill="none" stroke="#CCC" stroke-width="2"/>
  <line x1="100" y1="130" x2="100" y2="137" stroke="#CCC" stroke-width="2"/>
  <!-- Whiskers -->
  <line x1="55" y1="120" x2="85" y2="125" stroke="#CCC" stroke-width="1.5"/>
  <line x1="55" y1="130" x2="85" y2="130" stroke="#CCC" stroke-width="1.5"/>
  <line x1="115" y1="125" x2="145" y2="120" stroke="#CCC" stroke-width="1.5"/>
  <line x1="115" y1="130" x2="145" y2="130" stroke="#CCC" stroke-width="1.5"/>
  <!-- Cheeks -->
  <circle cx="72" cy="128" r="8" fill="#FFE4E1" opacity="0.7"/>
  <circle cx="128" cy="128" r="8" fill="#FFE4E1" opacity="0.7"/>
</svg>