<svg xmlns="http://www.w3.org/2000/svg" viewBox="0 0 200 200" width="200" height="200">
  <!-- Background - light sky -->
  <rect width="200" height="200" rx="20" fill="#E3F2FD"/>
  <!-- Rainbow arcs (outer to inner) -->
  <path d="M15 160 A85 85 0 0 1 185 160" fill="none" stroke="#E53935" stroke-width="10"/>
  <path d="M25 160 A75 75 0 0 1 175 160" fill="none" stroke="#FF9800" stroke-width="10"/>
  <path d="M35 160 A65 65 0 0 1 165 160" fill="none" stroke="#FFEB3B" stroke-width="10"/>
  <path d="M45 160 A55 55 0 0 1 155 160" fill="none" stroke="#4CAF50" stroke-width="10"/>
  <path d="M55 160 A45 45 0 0 1 145 160" fill="none" stroke="#2196F3" stroke-width="10"/>
  <path d="M65 160 A35 35 0 0 1 135 160" fill="none" stroke="#3F51B5" stroke-width="10"/>
  <path d="M75 160 A25 25 0 0 1 125 160" fill="none" stroke="#9C27B0" stroke-width="10"/>
  <!-- Left cloud -->
  <circle cx="25" cy="160" r="18" fill="white"/>
  <circle cx="10" cy="158" r="14" fill="white"/>
  <circle cx="38" cy="155" r="16" fill="white"/>
  <circle cx="20" cy="150" r="15" fill="white"/>
  <rect x="2" y="158" width="45" height="20" fill="white"/>
  <!-- Right cloud -->
  <circle cx="175" cy="160" r="18" fill="white"/>
  <circle cx="190" cy="158" r="14" fill="white"/>
  <circle cx="162" cy="155" r="16" fill="white"/>
  <circle cx="180" cy="150" r="15" fill="white"/>
  <rect x="155" y="158" width="45" height="20" fill="white"/>
  <!-- Sun in corner -->
  <circle cx="170" cy="35" r="20" fill="#FFD54F"/>
  <circle cx="170" cy="35" r="16" fill="#FFE082"/>
  <!-- Sun rays -->
  <line x1="170" y1="8" x2="170" y2="15" stroke="#FFD54F" stroke-width="3" stroke-linecap="round"/>
  <line x1="145" y1="35" x2="150" y2="35" stroke="#FFD54F" stroke-width="3" stroke-linecap="round"/>
  <line x1="152" y1="17" x2="156" y2="21" stroke="#FFD54F" stroke-width="3" stroke-linecap="round"/>
  <line x1="188" y1="17" x2="184" y2="21" stroke="#FFD54F" stroke-width="3" stroke-linecap="round"/>
  <line x1="152" y1="53" x2="156" y2="49" stroke="#FFD54F" stroke-width="3" stroke-linecap="round"/>
  <!-- Sparkles -->
  <path d="M30 40 L32 46 L38 48 L32 50 L30 56 L28 50 L22 48 L28 46 Z" fill="#FFD700" opacity="0.5"/>
  <path d="M80 30 L81 34 L85 35 L81 36 L80 40 L79 36 L75 35 L79 34 Z" fill="#FFD700" opacity="0.4"/>
</svg>