<svg xmlns="http://www.w3.org/2000/svg" width="200" height="200" viewBox="0 0 200 200">
  <!-- Girl figure -->
  <!-- Hair (long) -->
  <path d="M60 55 Q60 15 100 12 Q140 15 140 55 L140 85 Q140 90 135 90 L130 90 L130 55 Q130 30 100 25 Q70 30 70 55 L70 90 L65 90 Q60 90 60 85 Z" fill="#6D4C41"/>
  <!-- Head -->
  <circle cx="100" cy="55" r="32" fill="#FFCC80"/>
  <!-- Hair bow -->
  <path d="M125 30 L140 20 L140 40 Z" fill="#FF69B4"/>
  <path d="M125 30 L110 20 L110 40 Z" fill="#FF69B4"/>
  <circle cx="125" cy="30" r="4" fill="#E91E63"/>
  <!-- Eyes -->
  <circle cx="88" cy="52" r="5" fill="#333"/>
  <circle cx="112" cy="52" r="5" fill="#333"/>
  <!-- Eyelashes -->
  <line x1="83" y1="48" x2="80" y2="44" stroke="#333" stroke-width="2"/>
  <line x1="117" y1="48" x2="120" y2="44" stroke="#333" stroke-width="2"/>
  <!-- Smile -->
  <path d="M88 65 Q100 78 112 65" fill="none" stroke="#333" stroke-width="3" stroke-linecap="round"/>
  <!-- Dress -->
  <path d="M80 90 L70 165 L130 165 L120 90 Z" fill="#EC407A" rx="5"/>
  <!-- Dress top -->
  <rect x="80" y="88" width="40" height="25" rx="8" fill="#EC407A"/>
  <!-- Arms -->
  <rect x="55" y="93" width="18" height="38" rx="8" fill="#FFCC80"/>
  <rect x="127" y="93" width="18" height="38" rx="8" fill="#FFCC80"/>
  <!-- Legs -->
  <rect x="82" y="160" width="14" height="20" rx="5" fill="#FFCC80"/>
  <rect x="104" y="160" width="14" height="20" rx="5" fill="#FFCC80"/>
  <!-- Shoes -->
  <ellipse cx="89" cy="182" rx="12" ry="6" fill="#AB47BC"/>
  <ellipse cx="111" cy="182" rx="12" ry="6" fill="#AB47BC"/>
</svg>