<svg xmlns="http://www.w3.org/2000/svg" width="200" height="200" viewBox="0 0 200 200">
  <!-- Turtle -->
  <!-- Shell -->
  <ellipse cx="100" cy="105" rx="55" ry="40" fill="#66BB6A"/>
  <path d="M50 105 Q60 70 100 65 Q140 70 150 105" fill="#4CAF50" stroke="#388E3C" stroke-width="2"/>
  <!-- Shell pattern -->
  <path d="M80 75 L75 105" stroke="#388E3C" stroke-width="2"/>
  <path d="M100 68 L100 105" stroke="#388E3C" stroke-width="2"/>
  <path d="M120 75 L125 105" stroke="#388E3C" stroke-width="2"/>
  <path d="M70 90 L130 90" stroke="#388E3C" stroke-width="2"/>
  <!-- Head -->
  <ellipse cx="160" cy="105" rx="20" ry="16" fill="#81C784"/>
  <!-- Eye -->
  <circle cx="170" cy="100" r="4" fill="#333"/>
  <circle cx="171" cy="99" r="1.5" fill="white"/>
  <!-- Smile -->
  <path d="M162 110 Q168 116 174 110" fill="none" stroke="#333" stroke-width="2" stroke-linecap="round"/>
  <!-- Legs -->
  <ellipse cx="65" cy="140" rx="12" ry="8" fill="#81C784"/>
  <ellipse cx="135" cy="140" rx="12" ry="8" fill="#81C784"/>
  <ellipse cx="60" cy="130" rx="10" ry="7" fill="#81C784"/>
  <ellipse cx="140" cy="130" rx="10" ry="7" fill="#81C784"/>
  <!-- Tail -->
  <path d="M45 110 L30 115 L35 108" fill="#81C784"/>
  <!-- "ZZZ" sleeping/slow indicator -->
  <text x="155" y="70" font-size="16" font-family="Arial" font-weight="bold" fill="#9E9E9E">z</text>
  <text x="165" y="55" font-size="20" font-family="Arial" font-weight="bold" fill="#9E9E9E">z</text>
  <text x="178" y="38" font-size="24" font-family="Arial" font-weight="bold" fill="#9E9E9E">z</text>
</svg>