<svg xmlns="http://www.w3.org/2000/svg" width="200" height="200" viewBox="0 0 200 200">
  <!-- Ball -->
  <circle cx="100" cy="100" r="75" fill="white" stroke="#424242" stroke-width="3"/>
  <!-- Pentagon patches -->
  <polygon points="100,45 120,60 115,82 85,82 80,60" fill="#424242"/>
  <polygon points="55,85 65,65 55,50 35,58 33,80" fill="#424242"/>
  <polygon points="145,85 135,65 145,50 165,58 167,80" fill="#424242"/>
  <polygon points="65,135 55,115 65,100 85,105 82,125" fill="#424242"/>
  <polygon points="135,135 145,115 135,100 115,105 118,125" fill="#424242"/>
  <polygon points="100,170 115,155 108,140 92,140 85,155" fill="#424242"/>
  <!-- Highlight -->
  <circle cx="75" cy="65" r="12" fill="white" opacity="0.3"/>
</svg>