<svg xmlns="http://www.w3.org/2000/svg" width="200" height="200" viewBox="0 0 200 200">
  <!-- Shadow -->
  <ellipse cx="105" cy="188" rx="50" ry="6" fill="#E0E0E0" opacity="0.3"/>
  <!-- Spoon handle -->
  <path d="M95 110 L90 185 Q92 190 100 190 Q108 190 110 185 L105 110" fill="#BDBDBD"/>
  <path d="M95 110 L90 185 Q92 190 100 190 Q108 190 110 185 L105 110" fill="none" stroke="#9E9E9E" stroke-width="2"/>
  <!-- Handle highlight -->
  <path d="M98 115 L95 180" stroke="#E0E0E0" stroke-width="2.5" stroke-linecap="round" opacity="0.6"/>
  <!-- Spoon bowl -->
  <ellipse cx="100" cy="62" rx="42" ry="52" fill="#CFD8DC"/>
  <ellipse cx="100" cy="62" rx="42" ry="52" fill="none" stroke="#90A4AE" stroke-width="3"/>
  <!-- Spoon bowl inner -->
  <ellipse cx="100" cy="58" rx="32" ry="40" fill="#E0E0E0"/>
  <!-- Spoon bowl shine -->
  <ellipse cx="88" cy="45" rx="14" ry="18" fill="#ECEFF1" opacity="0.7"/>
  <ellipse cx="85" cy="40" rx="8" ry="10" fill="white" opacity="0.5"/>
  <!-- Spoon neck connection -->
  <path d="M88 108 Q100 125 112 108" fill="#BDBDBD" stroke="#9E9E9E" stroke-width="1.5"/>
</svg>