<svg xmlns="http://www.w3.org/2000/svg" width="200" height="200" viewBox="0 0 200 200">
  <!-- Building -->
  <rect x="15" y="50" width="170" height="110" rx="5" fill="#42A5F5"/>
  <!-- Roof/Sign area -->
  <rect x="15" y="40" width="170" height="25" rx="4" fill="#1E88E5"/>
  <text x="100" y="58" text-anchor="middle" font-size="14" fill="white" font-family="Arial" font-weight="bold">MARKET</text>
  <!-- Door -->
  <rect x="70" y="105" width="60" height="55" rx="3" fill="#BBDEFB"/>
  <line x1="100" y1="105" x2="100" y2="160" stroke="#90CAF9" stroke-width="2"/>
  <!-- Windows -->
  <rect x="25" y="72" width="35" height="25" rx="3" fill="#BBDEFB"/>
  <rect x="140" y="72" width="35" height="25" rx="3" fill="#BBDEFB"/>
  <!-- Shopping cart -->
  <path d="M30 170 L45 170 L55 185 L90 185 L95 170" stroke="#757575" stroke-width="3" fill="none" stroke-linecap="round" stroke-linejoin="round"/>
  <rect x="42" y="170" width="50" height="15" rx="2" fill="#9E9E9E"/>
  <circle cx="55" cy="192" r="5" fill="#616161"/>
  <circle cx="85" cy="192" r="5" fill="#616161"/>
  <!-- Products in window -->
  <rect x="29" y="82" width="8" height="12" rx="1" fill="#FF7043"/>
  <rect x="40" y="82" width="8" height="12" rx="1" fill="#66BB6A"/>
  <rect x="51" y="82" width="8" height="12" rx="1" fill="#FFEE58"/>
  <rect x="144" y="82" width="8" height="12" rx="1" fill="#AB47BC"/>
  <rect x="155" y="82" width="8" height="12" rx="1" fill="#29B6F6"/>
  <rect x="166" y="82" width="8" height="12" rx="1" fill="#EF5350"/>
</svg>