<svg xmlns="http://www.w3.org/2000/svg" width="200" height="200" viewBox="0 0 200 200">
  <!-- Hands pressed together (prayer/thanks) -->
  <!-- Left hand -->
  <path d="M65,180 L65,100 Q65,60 85,50 L92,45 Q98,42 98,50 L98,180 Z" fill="#FFCC80" stroke="#E0A050" stroke-width="2"/>
  <!-- Right hand -->
  <path d="M135,180 L135,100 Q135,60 115,50 L108,45 Q102,42 102,50 L102,180 Z" fill="#FFCC80" stroke="#E0A050" stroke-width="2"/>
  <!-- Finger details left -->
  <line x1="75" y1="65" x2="75" y2="130" stroke="#E0A050" stroke-width="1.5"/>
  <line x1="85" y1="55" x2="85" y2="130" stroke="#E0A050" stroke-width="1.5"/>
  <!-- Finger details right -->
  <line x1="125" y1="65" x2="125" y2="130" stroke="#E0A050" stroke-width="1.5"/>
  <line x1="115" y1="55" x2="115" y2="130" stroke="#E0A050" stroke-width="1.5"/>
  <!-- Sparkles around hands -->
  <text x="30" y="55" font-size="20" fill="#FFD700">&#9733;</text>
  <text x="155" y="55" font-size="18" fill="#FFD700">&#9733;</text>
  <text x="40" y="160" font-size="14" fill="#FFD700">&#9733;</text>
  <text x="148" y="160" font-size="14" fill="#FFD700">&#9733;</text>
  <!-- Small heart on top -->
  <path d="M92,22 Q92,12 100,18 Q108,12 108,22 L100,32 Z" fill="#E91E63"/>
</svg>