<svg xmlns="http://www.w3.org/2000/svg" viewBox="0 0 200 200" width="200" height="200">
  <!-- Background -->
  <rect width="200" height="200" rx="20" fill="#E0F7FA"/>
  <!-- Toothbrush handle -->
  <rect x="30" y="90" width="110" height="22" rx="11" fill="#42A5F5"/>
  <!-- Handle stripe design -->
  <rect x="40" y="94" width="90" height="5" rx="2" fill="#64B5F6" opacity="0.6"/>
  <rect x="40" y="103" width="90" height="5" rx="2" fill="#1E88E5" opacity="0.4"/>
  <!-- Handle grip area -->
  <rect x="35" y="88" width="30" height="26" rx="8" fill="#1E88E5"/>
  <rect x="38" y="92" width="24" height="18" rx="6" fill="#42A5F5"/>
  <!-- Grip texture lines -->
  <line x1="42" y1="92" x2="42" y2="110" stroke="#1E88E5" stroke-width="1.5" opacity="0.4"/>
  <line x1="47" y1="92" x2="47" y2="110" stroke="#1E88E5" stroke-width="1.5" opacity="0.4"/>
  <line x1="52" y1="92" x2="52" y2="110" stroke="#1E88E5" stroke-width="1.5" opacity="0.4"/>
  <line x1="57" y1="92" x2="57" y2="110" stroke="#1E88E5" stroke-width="1.5" opacity="0.4"/>
  <!-- Brush head -->
  <rect x="135" y="86" width="40" height="30" rx="6" fill="#E0E0E0"/>
  <rect x="137" y="88" width="36" height="26" rx="4" fill="#F5F5F5"/>
  <!-- Bristles -->
  <rect x="140" y="88" width="4" height="10" rx="1" fill="#FFFFFF"/>
  <rect x="146" y="88" width="4" height="10" rx="1" fill="#FFFFFF"/>
  <rect x="152" y="88" width="4" height="10" rx="1" fill="#FFFFFF"/>
  <rect x="158" y="88" width="4" height="10" rx="1" fill="#FFFFFF"/>
  <rect x="164" y="88" width="4" height="10" rx="1" fill="#FFFFFF"/>
  <rect x="140" y="104" width="4" height="10" rx="1" fill="#FFFFFF"/>
  <rect x="146" y="104" width="4" height="10" rx="1" fill="#FFFFFF"/>
  <rect x="152" y="104" width="4" height="10" rx="1" fill="#FFFFFF"/>
  <rect x="158" y="104" width="4" height="10" rx="1" fill="#FFFFFF"/>
  <rect x="164" y="104" width="4" height="10" rx="1" fill="#FFFFFF"/>
  <!-- Toothpaste blob on brush -->
  <path d="M138 82 Q145 60 155 65 Q165 55 170 70 Q175 62 172 82" fill="#4DD0E1"/>
  <path d="M140 82 Q147 64 155 68 Q163 60 168 72 Q172 65 170 82" fill="#80DEEA" opacity="0.6"/>
  <!-- Toothpaste shine -->
  <ellipse cx="150" cy="68" rx="4" ry="3" fill="white" opacity="0.4"/>
  <!-- Sparkles (clean!) -->
  <path d="M30 50 L32 56 L38 58 L32 60 L30 66 L28 60 L22 58 L28 56 Z" fill="#4FC3F7" opacity="0.5"/>
  <path d="M170 35 L172 41 L178 43 L172 45 L170 51 L168 45 L162 43 L168 41 Z" fill="#4FC3F7" opacity="0.5"/>
  <path d="M100 150 L101 154 L105 155 L101 156 L100 160 L99 156 L95 155 L99 154 Z" fill="#4FC3F7" opacity="0.4"/>
  <!-- Cute face on handle -->
  <circle cx="80" cy="96" r="3" fill="white"/>
  <circle cx="95" cy="96" r="3" fill="white"/>
  <circle cx="81" cy="95.5" r="1.2" fill="#1565C0"/>
  <circle cx="96" cy="95.5" r="1.2" fill="#1565C0"/>
  <path d="M82 105 Q87 110 94 105" fill="none" stroke="white" stroke-width="1.5" stroke-linecap="round"/>
</svg>