<svg xmlns="http://www.w3.org/2000/svg" viewBox="0 0 200 200" width="200" height="200">
  <!-- Background -->
  <rect width="200" height="200" rx="20" fill="#F3E5F5"/>
  <!-- Towel body - folded -->
  <!-- Bottom fold -->
  <rect x="35" y="110" width="130" height="55" rx="8" fill="#7E57C2"/>
  <rect x="35" y="110" width="130" height="55" rx="8" fill="url(#towelGrad1)" opacity="0.2"/>
  <!-- Middle section -->
  <rect x="35" y="75" width="130" height="45" rx="6" fill="#9575CD"/>
  <!-- Stripe pattern on middle -->
  <rect x="35" y="85" width="130" height="8" rx="2" fill="#B39DDB" opacity="0.6"/>
  <rect x="35" y="100" width="130" height="8" rx="2" fill="#B39DDB" opacity="0.6"/>
  <!-- Top fold (draped over) -->
  <path d="M35 75 Q35 50 50 45 L150 45 Q165 50 165 75 Z" fill="#AB84E0"/>
  <path d="M40 75 Q40 55 52 48 L148 48 Q160 55 160 75 Z" fill="#B39DDB" opacity="0.4"/>
  <!-- Stripe on top fold -->
  <path d="M42 62 Q42 56 52 53 L148 53 Q158 56 158 62" fill="none" stroke="#CE93D8" stroke-width="4" opacity="0.5"/>
  <!-- Fringe/tassels on bottom edge -->
  <line x1="45" y1="165" x2="45" y2="175" stroke="#7E57C2" stroke-width="2" stroke-linecap="round"/>
  <line x1="55" y1="165" x2="55" y2="175" stroke="#7E57C2" stroke-width="2" stroke-linecap="round"/>
  <line x1="65" y1="165" x2="65" y2="175" stroke="#7E57C2" stroke-width="2" stroke-linecap="round"/>
  <line x1="75" y1="165" x2="75" y2="175" stroke="#7E57C2" stroke-width="2" stroke-linecap="round"/>
  <line x1="85" y1="165" x2="85" y2="175" stroke="#7E57C2" stroke-width="2" stroke-linecap="round"/>
  <line x1="95" y1="165" x2="95" y2="175" stroke="#7E57C2" stroke-width="2" stroke-linecap="round"/>
  <line x1="105" y1="165" x2="105" y2="175" stroke="#7E57C2" stroke-width="2" stroke-linecap="round"/>
  <line x1="115" y1="165" x2="115" y2="175" stroke="#7E57C2" stroke-width="2" stroke-linecap="round"/>
  <line x1="125" y1="165" x2="125" y2="175" stroke="#7E57C2" stroke-width="2" stroke-linecap="round"/>
  <line x1="135" y1="165" x2="135" y2="175" stroke="#7E57C2" stroke-width="2" stroke-linecap="round"/>
  <line x1="145" y1="165" x2="145" y2="175" stroke="#7E57C2" stroke-width="2" stroke-linecap="round"/>
  <line x1="155" y1="165" x2="155" y2="175" stroke="#7E57C2" stroke-width="2" stroke-linecap="round"/>
  <!-- Cute face on top fold -->
  <circle cx="85" cy="62" r="4" fill="#4A148C"/>
  <circle cx="115" cy="62" r="4" fill="#4A148C"/>
  <circle cx="86.5" cy="61" r="1.5" fill="white"/>
  <circle cx="116.5" cy="61" r="1.5" fill="white"/>
  <path d="M92 72 Q100 80 108 72" fill="none" stroke="#4A148C" stroke-width="2" stroke-linecap="round"/>
  <!-- Blush -->
  <ellipse cx="78" cy="68" rx="6" ry="4" fill="#F48FB1" opacity="0.4"/>
  <ellipse cx="122" cy="68" rx="6" ry="4" fill="#F48FB1" opacity="0.4"/>
  <!-- Sparkles -->
  <path d="M25 30 L27 36 L33 38 L27 40 L25 46 L23 40 L17 38 L23 36 Z" fill="#CE93D8" opacity="0.5"/>
  <path d="M175 25 L176 29 L180 30 L176 31 L175 35 L174 31 L170 30 L174 29 Z" fill="#CE93D8" opacity="0.4"/>
  <defs>
    <linearGradient id="towelGrad1" x1="0" y1="0" x2="0" y2="1">
      <stop offset="0%" stop-color="white" stop-opacity="0.1"/>
      <stop offset="100%" stop-color="black" stop-opacity="0.1"/>
    </linearGradient>
  </defs>
</svg>