<svg xmlns="http://www.w3.org/2000/svg" width="200" height="200" viewBox="0 0 200 200">
  <path d="M100 20 Q115 60 130 90 Q140 115 130 135 Q120 160 100 165 Q80 160 70 135 Q60 115 70 90 Q85 60 100 20Z" fill="#5BC0EB" stroke="#3A9BD5" stroke-width="3"/>
  <path d="M55 110 Q62 130 72 140 Q78 150 72 160 Q65 170 55 172 Q45 170 38 160 Q32 150 38 140 Q48 130 55 110Z" fill="#7DD3F0"/>
  <path d="M150 100 Q157 118 165 128 Q170 138 165 148 Q160 158 150 160 Q140 158 135 148 Q130 138 135 128 Q143 118 150 100Z" fill="#7DD3F0"/>
  <ellipse cx="95" cy="80" rx="12" ry="8" fill="#8DE4FF" opacity="0.6"/>
</svg>
