<svg xmlns="http://www.w3.org/2000/svg" viewBox="0 0 200 200" width="200" height="200">
  <!-- Water spout -->
  <path d="M85 48 Q78 30 70 15" fill="none" stroke="#87CEEB" stroke-width="3" stroke-linecap="round"/>
  <path d="M90 45 Q90 25 90 10" fill="none" stroke="#87CEEB" stroke-width="3" stroke-linecap="round"/>
  <path d="M95 48 Q102 30 110 15" fill="none" stroke="#87CEEB" stroke-width="3" stroke-linecap="round"/>
  <!-- Spout droplets -->
  <circle cx="68" cy="12" r="3" fill="#87CEEB"/>
  <circle cx="90" cy="6" r="3.5" fill="#87CEEB"/>
  <circle cx="112" cy="12" r="3" fill="#87CEEB"/>
  <circle cx="78" cy="18" r="2" fill="#B0E0F6"/>
  <circle cx="102" cy="16" r="2" fill="#B0E0F6"/>
  <!-- Whale body -->
  <ellipse cx="95" cy="110" rx="70" ry="50" fill="#4A90D9"/>
  <!-- Belly -->
  <ellipse cx="95" cy="125" rx="50" ry="30" fill="#A8D1F0"/>
  <!-- Head bump -->
  <circle cx="90" cy="60" r="12" fill="#4A90D9"/>
  <!-- Tail -->
  <path d="M165 100 Q185 80 195 65 Q180 85 175 95" fill="#3A7BC8"/>
  <path d="M165 110 Q185 130 195 145 Q180 125 175 115" fill="#3A7BC8"/>
  <!-- Left eye -->
  <circle cx="55" cy="100" r="8" fill="white"/>
  <circle cx="53" cy="101" r="4.5" fill="#1A1A2E"/>
  <circle cx="52" cy="99" r="1.5" fill="white"/>
  <!-- Smile -->
  <path d="M40 120 Q55 135 75 125" fill="none" stroke="#2E6CB5" stroke-width="2.5" stroke-linecap="round"/>
  <!-- Fin -->
  <path d="M85 130 Q70 155 60 170 Q80 155 95 140" fill="#3A7BC8"/>
  <!-- Water line -->
  <path d="M0 160 Q25 152 50 160 Q75 168 100 160 Q125 152 150 160 Q175 168 200 160 L200 200 L0 200 Z" fill="#64B5F6" opacity="0.4"/>
  <path d="M0 175 Q25 168 50 175 Q75 182 100 175 Q125 168 150 175 Q175 182 200 175 L200 200 L0 200 Z" fill="#42A5F5" opacity="0.4"/>
  <!-- Blush -->
  <circle cx="42" cy="115" r="5" fill="#FFB6C1" opacity="0.5"/>
</svg>